HIERARCHY
ROOT Hips
{
  OFFSET 5.84602e-005 68.8428 3.50346
  CHANNELS 6 Xposition Yposition Zposition Zrotation Xrotation Yrotation
  JOINT Spine
  {
    OFFSET 0 8.597 -4.6522
    CHANNELS 3 Zrotation Xrotation Yrotation
    JOINT Spine1
    {
      OFFSET 0 7.8454 0.4098
      CHANNELS 3 Zrotation Xrotation Yrotation
      JOINT Spine2
      {
        OFFSET 0 9.7078 -2.1609
        CHANNELS 3 Zrotation Xrotation Yrotation
        JOINT Neck
        {
          OFFSET 0 21.8761 -0.4549
          CHANNELS 3 Zrotation Xrotation Yrotation
          JOINT Head
          {
            OFFSET 0 12.3537 3.3602
            CHANNELS 3 Zrotation Xrotation Yrotation
            End Site
            {
              OFFSET 0.0001 18.9506 0.5657
            }
          }
        }
        JOINT LeftShoulder
        {
          OFFSET 2.2086 21.1115 7.2329
          CHANNELS 3 Zrotation Xrotation Yrotation
          JOINT LeftArm
          {
            OFFSET 13.1193 3.0282 -4.8998
            CHANNELS 3 Zrotation Xrotation Yrotation
            JOINT LeftForeArm
            {
              OFFSET 27.4081 -0.0973053 -0.2375
              CHANNELS 3 Zrotation Xrotation Yrotation
              JOINT LeftHand
              {
                OFFSET 22.8641 0.0662994 -0.1369
                CHANNELS 3 Zrotation Xrotation Yrotation
                JOINT LeftHandIndex1
                {
                  OFFSET 8.8614 0.775009 2.4612
                  CHANNELS 3 Zrotation Xrotation Yrotation
                  JOINT LeftHandIndex2
                  {
                    OFFSET 3.3146 -0.808304 0.5841
                    CHANNELS 3 Zrotation Xrotation Yrotation
                    JOINT LeftHandIndex3
                    {
                      OFFSET 2.2628 -0.552002 0.3989
                      CHANNELS 3 Zrotation Xrotation Yrotation
                      End Site
                      {
                        OFFSET 1.6102 -0.4807 0.2612
                      }
                    }
                  }
                }
                JOINT LeftHandMiddle1
                {
                  OFFSET 8.9937 0.895004 0.2143
                  CHANNELS 3 Zrotation Xrotation Yrotation
                  JOINT LeftHandMiddle2
                  {
                    OFFSET 4.0984 0.0113983 -0.0242
                    CHANNELS 3 Zrotation Xrotation Yrotation
                    JOINT LeftHandMiddle3
                    {
                      OFFSET 2.2716 0.00689697 -0.0138001
                      CHANNELS 3 Zrotation Xrotation Yrotation
                      End Site
                      {
                        OFFSET 2.0404 -0.1441 0.0027
                      }
                    }
                  }
                }
                JOINT LeftHandRing1
                {
                  OFFSET 8.5234 0.597198 -2.0164
                  CHANNELS 3 Zrotation Xrotation Yrotation
                  JOINT LeftHandRing2
                  {
                    OFFSET 3.7188 -0.188293 -0.2328
                    CHANNELS 3 Zrotation Xrotation Yrotation
                    JOINT LeftHandRing3
                    {
                      OFFSET 2.1191 -0.106598 -0.1332
                      CHANNELS 3 Zrotation Xrotation Yrotation
                      End Site
                      {
                        OFFSET 1.8737 -0.2304 -0.0886
                      }
                    }
                  }
                }
                JOINT LeftHandPinky1
                {
                  OFFSET 7.9094 -0.601089 -3.4825
                  CHANNELS 3 Zrotation Xrotation Yrotation
                  JOINT LeftHandPinky2
                  {
                    OFFSET 2.2874 -0.477005 -0.6314
                    CHANNELS 3 Zrotation Xrotation Yrotation
                    JOINT LeftHandPinky3
                    {
                      OFFSET 1.6774 -0.349396 -0.4633
                      CHANNELS 3 Zrotation Xrotation Yrotation
                      End Site
                      {
                        OFFSET 1.4888 -0.4091 -0.3416
                      }
                    }
                  }
                }
                JOINT LeftHandThumb1
                {
                  OFFSET 1.833 -1.3875 1.3896
                  CHANNELS 3 Zrotation Xrotation Yrotation
                  JOINT LeftHandThumb2
                  {
                    OFFSET 3.4129 -1.121 2.5732
                    CHANNELS 3 Zrotation Xrotation Yrotation
                    JOINT LeftHandThumb3
                    {
                      OFFSET 2.2474 -0.804199 1.6192
                      CHANNELS 3 Zrotation Xrotation Yrotation
                      End Site
                      {
                        OFFSET 1.6527 -0.5689 1.1317
                      }
                    }
                  }
                }
              }
            }
          }
        }
        JOINT RightShoulder
        {
          OFFSET -2.2086 21.1115 7.2329
          CHANNELS 3 Zrotation Xrotation Yrotation
          JOINT RightArm
          {
            OFFSET -13.1216 3.0287 -4.9007
            CHANNELS 3 Zrotation Xrotation Yrotation
            JOINT RightForeArm
            {
              OFFSET -27.4081 -0.0973053 -0.2375
              CHANNELS 3 Zrotation Xrotation Yrotation
              JOINT RightHand
              {
                OFFSET -22.8641 0.0664063 -0.1369
                CHANNELS 3 Zrotation Xrotation Yrotation
                JOINT RightHandIndex1
                {
                  OFFSET -8.8614 0.774994 2.4612
                  CHANNELS 3 Zrotation Xrotation Yrotation
                  JOINT RightHandIndex2
                  {
                    OFFSET -3.3146 -0.808304 0.5841
                    CHANNELS 3 Zrotation Xrotation Yrotation
                    JOINT RightHandIndex3
                    {
                      OFFSET -2.2628 -0.552002 0.3989
                      CHANNELS 3 Zrotation Xrotation Yrotation
                      End Site
                      {
                        OFFSET -1.6102 -0.4807 0.2612
                      }
                    }
                  }
                }
                JOINT RightHandMiddle1
                {
                  OFFSET -8.9937 0.894989 0.2143
                  CHANNELS 3 Zrotation Xrotation Yrotation
                  JOINT RightHandMiddle2
                  {
                    OFFSET -4.0984 0.0113983 -0.0242
                    CHANNELS 3 Zrotation Xrotation Yrotation
                    JOINT RightHandMiddle3
                    {
                      OFFSET -2.2716 0.00691223 -0.0138001
                      CHANNELS 3 Zrotation Xrotation Yrotation
                      End Site
                      {
                        OFFSET -2.0404 -0.1441 0.0027
                      }
                    }
                  }
                }
                JOINT RightHandRing1
                {
                  OFFSET -8.5234 0.597198 -2.0164
                  CHANNELS 3 Zrotation Xrotation Yrotation
                  JOINT RightHandRing2
                  {
                    OFFSET -3.7188 -0.188309 -0.2328
                    CHANNELS 3 Zrotation Xrotation Yrotation
                    JOINT RightHandRing3
                    {
                      OFFSET -2.1191 -0.106598 -0.1332
                      CHANNELS 3 Zrotation Xrotation Yrotation
                      End Site
                      {
                        OFFSET -1.8737 -0.2304 -0.0886
                      }
                    }
                  }
                }
                JOINT RightHandPinky1
                {
                  OFFSET -7.9094 -0.601105 -3.4825
                  CHANNELS 3 Zrotation Xrotation Yrotation
                  JOINT RightHandPinky2
                  {
                    OFFSET -2.2874 -0.477005 -0.6314
                    CHANNELS 3 Zrotation Xrotation Yrotation
                    JOINT RightHandPinky3
                    {
                      OFFSET -1.6774 -0.349396 -0.4633
                      CHANNELS 3 Zrotation Xrotation Yrotation
                      End Site
                      {
                        OFFSET -1.4888 -0.4091 -0.3416
                      }
                    }
                  }
                }
                JOINT RightHandThumb1
                {
                  OFFSET -1.833 -1.38751 1.3896
                  CHANNELS 3 Zrotation Xrotation Yrotation
                  JOINT RightHandThumb2
                  {
                    OFFSET -3.41299 -1.12099 2.5732
                    CHANNELS 3 Zrotation Xrotation Yrotation
                    JOINT RightHandThumb3
                    {
                      OFFSET -2.24741 -0.804108 1.6192
                      CHANNELS 3 Zrotation Xrotation Yrotation
                      End Site
                      {
                        OFFSET -1.6527 -0.5689 1.1317
                      }
                    }
                  }
                }
              }
            }
          }
        }
      }
    }
  }
  JOINT RightUpLeg
  {
    OFFSET -9.1966 3.8861 -0.7581
    CHANNELS 3 Zrotation Xrotation Yrotation
    JOINT RightLeg
    {
      OFFSET -0.7359 -41.0265 0
      CHANNELS 3 Zrotation Xrotation Yrotation
      JOINT RightFoot
      {
        OFFSET 0 -40.2855 0
        CHANNELS 3 Zrotation Xrotation Yrotation
        JOINT RightToeBase
        {
          OFFSET 0 -5.6122 11.7359
          CHANNELS 3 Zrotation Xrotation Yrotation
          End Site
          {
            OFFSET 0 0 7.8731
          }
        }
      }
    }
  }
  JOINT LeftUpLeg
  {
    OFFSET 9.1965 3.8864 -0.7581
    CHANNELS 3 Zrotation Xrotation Yrotation
    JOINT LeftLeg
    {
      OFFSET 0.7359 -41.0268 0
      CHANNELS 3 Zrotation Xrotation Yrotation
      JOINT LeftFoot
      {
        OFFSET 0 -40.2855 0
        CHANNELS 3 Zrotation Xrotation Yrotation
        JOINT LeftToeBase
        {
          OFFSET 0 -5.6122 11.7359
          CHANNELS 3 Zrotation Xrotation Yrotation
          End Site
          {
            OFFSET 0 0 7.8731
          }
        }
      }
    }
  }
}
MOTION
Frames:	4
Frame Time:	0.0333333
5.84602e-005 68.8428 3.50346 0 0 -0 0 0 -0 0 0 -0 0 0 -0 0 0 -0 0 0 -0 0 0 -0 0 0 -0 0 0 -0 0 0 -0 0 0 -0 0 0 -0 0 0 -0 0 0 -0 -0.0146107 -8.87603e-005 -2.63497e-007 2.99804e-018 -2.42657e-020 -1.42182e-022 0 0 -0 -0.0187562 -0.001176 5.858e-005 5.06224e-018 3.88251e-019 1.21329e-020 0 0 -0 -0.012269 -0.00324817 0.000675346 -1.74678e-018 3.88251e-019 -0 0 0 -0 0 0 -0 0 0 -0 0 0 -0 0 0 -0 0 0 -0 0 0 -0 0 0 -0 0 0 -0 0 0 -0 0 0 -0 0.0149955 -9.10982e-005 2.64101e-007 -9.69331e-018 1.21329e-020 -4.7394e-023 0 0 -0 0.0189956 -0.00119102 -5.96516e-005 -5.41541e-019 0 2.42657e-020 0 0 -0 0.0122698 -0.00324857 -0.000673756 -2.00796e-019 0 -1.94126e-019 0 0 -0 0 0 -0 0 0 -0 3.39842 1.33031 -0.0637918 -5.65207e-008 0.834868 -0.000436188 -3.39935 -2.16518 -0.0642563 -8.89002e-024 -1.18485e-023 -1.48106e-024 -3.39844 1.35642 0.0640283 -3.18788e-007 0.782166 -0.000588827 3.39931 -2.13858 0.0634662 1.1399e-023 0 -0 
39.2364 39.6159 18.5774 -179.999 58.9984 12.9916 -0.311064 6.23912 -2.86024 -0.309127 12.4861 -5.73774 -0.309126 12.4861 -5.73773 -1.93432e-006 13.9969 -8.95499e-006 0.000817519 -0.159109 0.589271 -8.94839 5.88101 7.70269 -51.9683 54.9428 2.69367 13.4026 33.7116 -22.4619 1.47264 0.0678727 3.78224 -3.48253e-009 2.36986e-007 4.1208e-006 4.11401e-008 2.98901e-007 -8.80026e-009 -3.48253e-009 2.36986e-007 4.1208e-006 -3.48253e-009 2.36986e-007 4.1208e-006 -0.0146297 -8.85965e-005 4.52867e-006 -1.85144e-008 1.06363e-007 1.31445e-006 -3.48253e-009 2.36986e-007 4.1208e-006 -0.0187295 -0.00117429 6.30161e-005 -2.55003e-009 2.36368e-007 4.12084e-006 -3.48253e-009 2.36986e-007 4.1208e-006 -0.0122539 -0.00324472 0.000670244 -2.78208e-009 2.36699e-007 4.1208e-006 -3.48253e-009 2.36986e-007 4.1208e-006 4.11401e-008 2.98901e-007 -8.80026e-009 -3.48253e-009 2.36986e-007 4.1208e-006 19.3594 -0.559183 1.20403 39.2956 54.9902 -3.3114 27.4013 -27.5317 155.386 46.7132 -9.73177 -0.709549 1.63204e-006 -1.44219e-007 3.99536e-007 -7.95139e-016 0 1.59028e-015 1.63204e-006 -1.44219e-007 3.99536e-007 1.63204e-006 -1.44219e-007 3.99536e-007 0.0150255 -9.12289e-005 1.81932e-007 1.63208e-006 -1.44167e-007 3.99554e-007 1.63204e-006 -1.44219e-007 3.99536e-007 0.0189829 -0.00119143 -6.09315e-005 2.22889e-006 -6.59342e-008 1.97895e-007 1.63204e-006 -1.44219e-007 3.99536e-007 0.0123245 -0.00326252 -0.000678181 1.63208e-006 -1.44174e-007 3.99504e-007 1.63204e-006 -1.44219e-007 3.99536e-007 -7.95139e-016 0 1.59028e-015 1.63204e-006 -1.44219e-007 3.99536e-007 45.8487 -71.4992 27.8252 -2.02626 36.2062 42.0154 -26.3401 -2.06596 -8.00574 -4.17448e-015 2.38542e-015 -3.18055e-015 37.3216 -77.8022 67.9478 2.03492 37.5034 -41.9571 24.8344 -2.72494 7.2158 -4.01297e-015 0 -0 
39.2372 39.6164 18.5704 -179.999 58.9984 12.9916 -0.281718 6.42588 -2.86291 -0.239992 12.8578 -5.74863 -0.239993 12.8578 -5.74863 -0.407823 13.9964 0.098659 -0.0581168 -0.305463 1.16397 -8.37939 5.39286 6.98923 -52.3059 54.9426 2.74902 13.4026 33.7116 -22.4619 1.68238 -0.592018 3.85091 7.95139e-016 9.93923e-017 9.54166e-015 8.12549e-009 1.3436e-007 2.77306e-006 -1.26851e-008 1.05402e-007 1.33558e-006 7.95139e-016 9.93923e-017 9.54166e-015 -0.014626 -8.89363e-005 2.76564e-006 -3.97569e-016 -1.2921e-015 -0 7.95139e-016 9.93923e-017 9.54166e-015 -0.0187435 -0.00117494 6.41705e-005 -1.42368e-008 1.05086e-007 1.3356e-006 7.95139e-016 9.93923e-017 9.54166e-015 -0.0122559 -0.0032432 0.000678791 7.95139e-016 -2.98177e-016 -6.36111e-015 7.95139e-016 9.93923e-017 9.54166e-015 8.12549e-009 1.3436e-007 2.77306e-006 -1.26851e-008 1.05402e-007 1.33558e-006 19.3594 -0.559187 1.20404 39.2956 54.9902 -3.31138 27.1686 -27.7609 154.884 46.7132 -9.73178 -0.709542 -6.36111e-015 0 -1.59028e-015 -3.53113e-031 -6.36111e-015 -3.18055e-015 -7.95139e-016 0 -1.59028e-015 -6.36111e-015 0 -1.59028e-015 0.0150053 -9.09533e-005 3.59735e-007 -7.95139e-016 -3.18055e-015 -0 -6.36111e-015 0 -1.59028e-015 0.0190585 -0.00119553 -5.87312e-005 1.59028e-015 0 -1.59028e-015 -6.36111e-015 0 -1.59028e-015 0.0122085 -0.00322955 -0.000674407 3.18055e-015 9.54166e-015 -1.59028e-015 -6.36111e-015 0 -1.59028e-015 -3.53113e-031 -6.36111e-015 -3.18055e-015 -7.95139e-016 0 -1.59028e-015 46.8328 -71.8112 28.8601 -2.02717 36.2242 42.014 -26.3477 -2.07294 -8.00751 7.68885e-007 -4.03616e-007 1.52858e-008 38.7865 -78.1988 69.4452 2.03504 37.506 -41.957 24.8345 -2.72274 7.21532 -3.83113e-008 -2.85845e-007 7.13446e-007 
39.2379 39.6168 18.5634 -179.999 58.9984 12.9916 -0.252242 6.61366 -2.86491 -0.170512 13.2317 -5.7585 -0.170516 13.2317 -5.7585 -0.815922 13.9954 0.197338 -0.115698 -0.452733 1.73971 -7.81631 4.89714 6.28035 -52.6436 54.9422 2.80439 13.4026 33.7116 -22.4619 1.89308 -1.25204 3.92206 1.59105e-007 6.12401e-007 8.1904e-006 -2.64705e-007 4.4589e-007 1.34478e-006 -1.28142e-007 1.70572e-007 -5.50954e-009 1.59105e-007 6.12401e-007 8.1904e-006 -0.0146083 -8.83237e-005 1.53155e-006 -1.28142e-007 1.70572e-007 -5.48769e-009 1.59105e-007 6.12401e-007 8.1904e-006 -0.0187253 -0.00117354 6.00161e-005 -1.28143e-007 1.70573e-007 -5.48034e-009 1.59105e-007 6.12401e-007 8.1904e-006 -0.0122667 -0.0032472 0.000674376 -1.28142e-007 1.70573e-007 -5.4876e-009 1.59105e-007 6.12401e-007 8.1904e-006 -2.64705e-007 4.4589e-007 1.34478e-006 -1.28142e-007 1.70572e-007 -5.50954e-009 19.3594 -0.559189 1.20403 39.2956 54.9902 -3.31139 26.9329 -27.9882 154.381 46.7132 -9.73177 -0.709549 1.82363e-006 1.0362e-008 -4.52037e-007 1.63972e-006 -1.271e-007 3.67824e-007 1.82363e-006 1.03619e-008 -4.52037e-007 1.82363e-006 1.0362e-008 -4.52037e-007 0.0150255 -9.22246e-005 -2.78084e-007 1.82368e-006 1.03024e-008 -4.52039e-007 1.82363e-006 1.0362e-008 -4.52037e-007 0.0190147 -0.00119474 -5.92299e-005 1.82368e-006 1.02844e-008 -4.52058e-007 1.82363e-006 1.0362e-008 -4.52037e-007 0.0123055 -0.00325672 -0.000676513 1.82366e-006 1.03146e-008 -4.52092e-007 1.82363e-006 1.0362e-008 -4.52037e-007 1.63972e-006 -1.271e-007 3.67824e-007 1.82363e-006 1.03619e-008 -4.52037e-007 47.852 -72.1177 29.9301 -2.02806 36.2424 42.0125 -26.3554 -2.07994 -8.00929 -1.78906e-015 7.95139e-016 3.18055e-015 40.3534 -78.5871 71.0444 2.03517 37.5086 -41.9571 24.8345 -2.72048 7.21482 -1.56649e-008 -8.3456e-007 1.75574e-007 
